<svg width="33" height="32" viewBox="0 0 33 32" fill="none" xmlns="http://www.w3.org/2000/svg">
<path d="M18.2954 20C18.2954 20.2896 18.3896 20.5712 18.5639 20.8024C18.7381 21.0337 18.9829 21.2019 19.2612 21.2817C19.5395 21.3615 19.8362 21.3486 20.1065 21.2448C20.3768 21.1411 20.606 20.9522 20.7594 20.7067L24.3434 17.124C24.4672 17.0002 24.5654 16.8531 24.6323 16.6913C24.6993 16.5295 24.7337 16.356 24.7337 16.1809C24.7336 16.0058 24.6991 15.8324 24.632 15.6706C24.5649 15.5088 24.4666 15.3618 24.3427 15.238C24.2189 15.1142 24.0718 15.0161 23.91 14.9491C23.7482 14.8821 23.5747 14.8477 23.3996 14.8478C23.2245 14.8478 23.0511 14.8824 22.8893 14.9495C22.7275 15.0165 22.5805 15.1148 22.4567 15.2387L20.9634 16.732V6.66671C20.9634 6.31309 20.8229 5.97395 20.5729 5.7239C20.3228 5.47385 19.9837 5.33337 19.6301 5.33337C19.2765 5.33337 18.9373 5.47385 18.6873 5.7239C18.4372 5.97395 18.2967 6.31309 18.2967 6.66671V19.9334V20H18.2954Z" fill="#F3C914"/>
<path d="M15.6715 12.0001C15.6715 11.7106 15.5773 11.4289 15.403 11.1977C15.2288 10.9665 14.984 10.7982 14.7057 10.7184C14.4274 10.6386 14.1307 10.6515 13.8604 10.7553C13.5901 10.859 13.3609 11.0479 13.2075 11.2934L9.62482 14.8761C9.49748 14.9991 9.3959 15.1462 9.32602 15.3089C9.25614 15.4716 9.21936 15.6465 9.21782 15.8236C9.21629 16.0006 9.25002 16.1762 9.31706 16.34C9.3841 16.5039 9.48311 16.6528 9.6083 16.7779C9.73349 16.9031 9.88236 17.0021 10.0462 17.0692C10.2101 17.1362 10.3857 17.17 10.5627 17.1684C10.7397 17.1669 10.9147 17.1301 11.0774 17.0602C11.24 16.9903 11.3872 16.8888 11.5102 16.7614L13.0048 15.2681V25.3334C13.0048 25.687 13.1453 26.0262 13.3953 26.2762C13.6454 26.5263 13.9845 26.6668 14.3382 26.6668C14.6918 26.6668 15.0309 26.5263 15.281 26.2762C15.531 26.0262 15.6715 25.687 15.6715 25.3334V12.0668V12.0001Z" fill="#F3C914"/>
</svg>
